<svg width="1600" height="1000" viewBox="0 0 1600 1000" fill="none" xmlns="http://www.w3.org/2000/svg">
  <defs>
    <linearGradient id="sky" x1="800" y1="0" x2="800" y2="1000" gradientUnits="userSpaceOnUse">
      <stop stop-color="#07101F"/>
      <stop offset="1" stop-color="#16120F"/>
    </linearGradient>
    <linearGradient id="building" x1="920" y1="70" x2="920" y2="820" gradientUnits="userSpaceOnUse">
      <stop stop-color="#36383B"/>
      <stop offset="1" stop-color="#232427"/>
    </linearGradient>
    <linearGradient id="wallGlow" x1="0" y1="0" x2="0" y2="1">
      <stop stop-color="#F2C45D"/>
      <stop offset="1" stop-color="#8A5F1B"/>
    </linearGradient>
    <filter id="softGlow" x="-20%" y="-20%" width="140%" height="140%">
      <feGaussianBlur stdDeviation="12" result="blur"/>
      <feMerge>
        <feMergeNode in="blur"/>
        <feMergeNode in="SourceGraphic"/>
      </feMerge>
    </filter>
  </defs>

  <rect width="1600" height="1000" fill="url(#sky)"/>

  <rect x="90" y="40" width="300" height="720" fill="#2A2D33"/>
  <rect x="390" y="0" width="960" height="820" fill="url(#building)"/>
  <rect x="390" y="820" width="960" height="180" fill="#2A1E18"/>

  <g opacity="0.22">
    <path d="M430 0L1300 520" stroke="#6B6E76" stroke-width="5"/>
    <path d="M230 250L1600 420" stroke="#5B5E66" stroke-width="6"/>
    <path d="M480 170L1440 730" stroke="#4B4E56" stroke-width="5"/>
    <path d="M0 520L1480 310" stroke="#3D4652" stroke-width="6"/>
  </g>

  <g opacity="0.18">
    <path d="M540 120V820" stroke="#8E9197" stroke-width="2"/>
    <path d="M585 120V820" stroke="#8E9197" stroke-width="2"/>
    <path d="M630 120V820" stroke="#8E9197" stroke-width="2"/>
    <path d="M675 120V820" stroke="#8E9197" stroke-width="2"/>
    <path d="M720 120V820" stroke="#8E9197" stroke-width="2"/>
    <path d="M765 120V820" stroke="#8E9197" stroke-width="2"/>
    <path d="M810 120V820" stroke="#8E9197" stroke-width="2"/>
    <path d="M855 120V820" stroke="#8E9197" stroke-width="2"/>
    <path d="M900 120V820" stroke="#8E9197" stroke-width="2"/>
    <path d="M945 120V820" stroke="#8E9197" stroke-width="2"/>
    <path d="M990 120V820" stroke="#8E9197" stroke-width="2"/>
    <path d="M1035 120V820" stroke="#8E9197" stroke-width="2"/>
    <path d="M1080 120V820" stroke="#8E9197" stroke-width="2"/>
    <path d="M1125 120V820" stroke="#8E9197" stroke-width="2"/>
    <path d="M1170 120V820" stroke="#8E9197" stroke-width="2"/>
    <path d="M1215 120V820" stroke="#8E9197" stroke-width="2"/>
    <path d="M1260 120V820" stroke="#8E9197" stroke-width="2"/>
  </g>

  <path d="M0 590L350 590L510 760L0 760V590Z" fill="#DBDBD8"/>
  <path d="M0 620L340 620L470 742L0 742V620Z" fill="#F0F0ED"/>
  <path d="M0 630L330 630L450 740L0 740V630Z" fill="#D8D9D8"/>

  <g opacity="0.9">
    <rect x="76" y="650" width="18" height="120" rx="4" fill="#9A9DA6"/>
    <rect x="190" y="640" width="18" height="126" rx="4" fill="#9A9DA6"/>
    <rect x="314" y="632" width="18" height="136" rx="4" fill="#9A9DA6"/>
    <rect x="432" y="640" width="16" height="122" rx="4" fill="#9A9DA6"/>
  </g>

  <rect x="100" y="720" width="280" height="170" fill="#3A2E25"/>
  <rect x="410" y="720" width="140" height="170" fill="#E6E2DA"/>
  <rect x="426" y="742" width="108" height="116" fill="#C8C0B6"/>
  <rect x="435" y="752" width="90" height="96" fill="#EEE9E0"/>
  <rect x="100" y="804" width="60" height="86" fill="#B4522A"/>
  <rect x="162" y="804" width="60" height="86" fill="#E3BB3A"/>
  <rect x="224" y="804" width="60" height="86" fill="#B4522A"/>
  <rect x="286" y="804" width="60" height="86" fill="#E3BB3A"/>

  <rect x="388" y="742" width="30" height="72" fill="#0A69D9"/>
  <rect x="420" y="742" width="220" height="72" fill="#F2F7F8"/>
  <rect x="642" y="742" width="28" height="72" fill="#0A69D9"/>
  <text x="452" y="784" fill="#0E3170" font-family="Arial, sans-serif" font-size="34" font-weight="700">Exit 2</text>

  <path d="M736 740C748 688 800 688 824 740" stroke="#F6C20D" stroke-width="18" stroke-linecap="round"/>
  <path d="M824 740C846 688 902 688 920 740" stroke="#F6C20D" stroke-width="18" stroke-linecap="round"/>

  <rect x="1010" y="370" width="16" height="490" fill="#C2C7CF"/>
  <rect x="1012" y="734" width="48" height="142" fill="#D4D8DE"/>
  <circle cx="1018" cy="734" r="22" fill="#1D61D7"/>
  <path d="M1018 719V748" stroke="#F8F8F8" stroke-width="8" stroke-linecap="round"/>
  <path d="M1004 735L1018 719L1032 735" stroke="#F8F8F8" stroke-width="8" stroke-linecap="round" stroke-linejoin="round"/>

  <rect x="1410" y="450" width="150" height="38" rx="19" fill="#424A58"/>
  <circle cx="1438" cy="469" r="21" fill="#2ECFA5"/>
  <circle cx="1488" cy="469" r="21" fill="#C8A938"/>
  <circle cx="1538" cy="469" r="21" fill="#C74333"/>

  <circle cx="1110" cy="807" r="15" fill="#FFE4B1"/>
  <rect x="1094" y="822" width="32" height="60" rx="10" fill="#16171B"/>
  <circle cx="1180" cy="810" r="15" fill="#FFE4B1"/>
  <rect x="1163" y="824" width="34" height="58" rx="10" fill="#D94B3F"/>
  <circle cx="1214" cy="804" r="14" fill="#FFE4B1"/>
  <rect x="1198" y="818" width="32" height="64" rx="10" fill="#101318"/>

  <rect x="1124" y="868" width="134" height="16" rx="6" fill="#FF4A3E" filter="url(#softGlow)"/>

  <path d="M970 260C970 260 964 516 1064 652" stroke="#C92C21" stroke-width="16" stroke-linecap="round"/>
  <path d="M1064 652L1096 622L1040 620" stroke="#C92C21" stroke-width="16" stroke-linecap="round" stroke-linejoin="round"/>

  <ellipse cx="1174" cy="818" rx="126" ry="92" stroke="#C92C21" stroke-width="18"/>
  <ellipse cx="1176" cy="819" rx="166" ry="124" stroke="#C92C21" stroke-width="10" opacity="0.75"/>

  <rect x="1090" y="90" width="314" height="92" rx="10" fill="#111520" opacity="0.9"/>
  <text x="1120" y="132" fill="#F8F8F8" font-family="Arial, sans-serif" font-size="34" font-weight="700">Look for these landmarks</text>
  <text x="1120" y="164" fill="#B3BAC7" font-family="Arial, sans-serif" font-size="24">Station exit + McDonald's + wall-side sidewalk</text>

  <rect x="92" y="104" width="330" height="92" rx="10" fill="#111520" opacity="0.9"/>
  <text x="124" y="146" fill="#F8F8F8" font-family="Arial, sans-serif" font-size="34" font-weight="700">Keihan Gion-Shijo Exit 2</text>
  <text x="124" y="178" fill="#B3BAC7" font-family="Arial, sans-serif" font-size="24">Come up to street level and face McDonald's</text>

  <rect x="980" y="890" width="450" height="78" rx="10" fill="#111520" opacity="0.94"/>
  <text x="1012" y="936" fill="#FFDBD7" font-family="Arial, sans-serif" font-size="34" font-weight="700">Wait here on the sidewalk beside the wall</text>
</svg>
